<?xml version="1.0" encoding="utf-8"?>
<!-- Generator: Adobe Illustrator 26.0.1, SVG Export Plug-In . SVG Version: 6.00 Build 0)  -->
<svg version="1.1" id="Layer_1" xmlns="http://www.w3.org/2000/svg" xmlns:xlink="http://www.w3.org/1999/xlink" x="0px" y="0px"
	 viewBox="0 0 523.2 722.6" style="enable-background:new 0 0 523.2 722.6;" xml:space="preserve">
<style type="text/css">
	.st0{fill:#FFFFFF;}
	.st1{fill:#284721;}
	.st2{fill:#C5E649;}
	.st3{fill:#030704;}
</style>
<g>
	<path d="M452.9,273.3c0-29,0-56.9,0-85.2c23.6,0,46.8,0,70.3,0c0,178,0,355.8,0,533.9c-23.4,0-46.5,0-70.1,0c0-27.9,0-55.5,0-84.4
		c-2.5,2-4.1,3.3-5.8,4.6c-18,14.6-35.1,30.3-55,42.5c-56.2,34.2-117,45.6-181.3,32.8c-80.5-16-139.7-62-178.8-133.7
		c-28-51.2-37.2-106.3-29.8-164c12.8-100.1,80-185.4,173.2-216.6c90.4-30.3,173.5-14.3,247.8,45.8
		C433,256.7,442.4,264.7,452.9,273.3z M447.6,454.5c1.8-20.6-1.1-41.7-8-62.2c-16.5-49.3-46.7-87.1-93.1-111.2
		c-36.4-18.9-75.3-24.7-115.6-18.8C173.1,270.7,128.1,299.7,98,350c-29.3,48.8-35.3,101.8-22.2,156.6c11.3,47.2,37,85.3,77.9,112.2
		c41.9,27.6,88.1,36.1,137.3,28.2c52.7-8.5,94.6-35,124.5-79.3C438.2,534,450.6,496.8,447.6,454.5z"/>
	<path d="M240,0c33,38.7,65.6,76.8,98.6,115.5c-19.3,13.7-38.3,27.2-57.7,41.1c-32-38-63.7-75.6-95.9-113.7
		C203.4,28.5,221.5,14.4,240,0z"/>
</g>
</svg>
